<svg xmlns="http://www.w3.org/2000/svg" viewBox="0 0 1440 320" preserveAspectRatio="none"><path fill="#fff" fill-opacity="1" d="M0,96L24,85.3C48,75,96,53,144,69.3C192,85,240,139,288,160C336,181,384,171,432,165.3C480,160,528,160,576,176C624,192,672,224,720,240C768,256,816,256,864,229.3C912,203,960,149,1008,122.7C1056,96,1104,96,1152,90.7C1200,85,1248,75,1296,96C1344,117,1392,171,1416,197.3L1440,224L1440,320L1416,320C1392,320,1344,320,1296,320C1248,320,1200,320,1152,320C1104,320,1056,320,1008,320C960,320,912,320,864,320C816,320,768,320,720,320C672,320,624,320,576,320C528,320,480,320,432,320C384,320,336,320,288,320C240,320,192,320,144,320C96,320,48,320,24,320L0,320Z"></path></svg>